#!OML:ASF H:\SpeedWalk\Project 1\Capture day 2\Session 1\male.ASF
:FULLY-SPECIFIED
:DEGREES
153
root -8.047460 19.496926 -10.091441 5.244814 -3.607133 -4.003172
lowerback 12.801370 3.653115 2.248604 
upperback -0.457656 5.318853 1.567683 
thorax -7.610634 2.527967 -0.614877 
lowerneck -13.667372 0.144102 1.393879 
upperneck 9.643409 0.250362 -2.547974 
head 5.137742 -0.004638 -1.002292 
rclavicle 0.000000 0.000000 
rhumerus -25.893410 -14.620317 -81.545979 
rradius 30.175755 
rwrist -2.607386 
rhand -12.229687 -12.327469 
rfingers 0.000000 
rthumb 13.835705 -41.847269 
lclavicle 0.000000 0.000000 
lhumerus -38.624839 3.736943 85.996751 
lradius 36.494948 
lwrist -14.538916 
lhand -6.104901 15.264381 
lfingers 0.000000 
lthumb 19.731519 44.282983 
rfemur 8.354656 2.372671 24.542952 
rtibia 19.704021 
rfoot 26.531131 -7.864996 
rtoes -9.668827 
lfemur -57.797172 1.459836 -18.738185 
ltibia 75.186017 
lfoot -21.324985 0.825537 
ltoes 5.034637 
154
root -8.043238 19.613824 -9.928081 5.377905 -3.283327 -3.867157
lowerback 12.784539 3.585343 1.975697 
upperback -0.528868 5.188948 1.553844 
thorax -7.702887 2.473641 -0.455515 
lowerneck -13.734276 0.090386 1.377744 
upperneck 9.469820 0.163739 -2.438921 
head 5.092581 -0.039754 -0.972221 
rclavicle 0.000000 0.000000 
rhumerus -26.013878 -14.844256 -81.530447 
rradius 29.972117 
rwrist -2.137060 
rhand -12.120994 -12.247866 
rfingers 0.000000 
rthumb 13.940420 -41.760478 
lclavicle 0.000000 0.000000 
lhumerus -38.593551 3.424476 86.130051 
lradius 36.900630 
lwrist -14.255006 
lhand -6.118678 15.237462 
lfingers 0.000000 
lthumb 19.718266 44.257395 
rfemur 7.038954 1.801917 24.263782 
rtibia 22.409059 
rfoot 26.692575 -8.241312 
rtoes -7.091274 
lfemur -56.592357 1.127062 -18.922157 
ltibia 74.130559 
lfoot -21.575413 0.971242 
ltoes 4.720370 
155
root -8.039786 19.727129 -9.772326 5.480012 -2.962793 -3.666736
lowerback 12.768490 3.516253 1.643946 
upperback -0.584501 5.046930 1.531041 
thorax -7.782061 2.416316 -0.269665 
lowerneck -13.774863 0.044068 1.360889 
upperneck 9.293537 0.089264 -2.342011 
head 5.042631 -0.069727 -0.944765 
rclavicle 0.000000 0.000000 
rhumerus -26.088053 -15.018547 -81.536385 
rradius 29.788986 
rwrist -1.705261 
rhand -12.043932 -12.158681 
rfingers 0.000000 
rthumb 14.014635 -41.666224 
lclavicle 0.000000 0.000000 
lhumerus -38.542408 3.110203 86.276438 
lradius 37.306225 
lwrist -13.971846 
lhand -6.204764 15.222603 
lfingers 0.000000 
lthumb 19.635504 44.250990 
rfemur 5.611936 1.124917 23.915915 
rtibia 25.417150 
rfoot 26.744977 -8.699094 
rtoes -4.090323 
lfemur -55.380056 0.768488 -19.168662 
ltibia 73.058311 
lfoot -21.804338 1.135496 
ltoes 4.588540 
156
root -8.036867 19.837176 -9.622677 5.555617 -2.646056 -3.420748
lowerback 12.753118 3.445504 1.277096 
upperback -0.628250 4.896242 1.501036 
thorax -7.849718 2.356653 -0.069362 
lowerneck -13.794269 0.003648 1.341941 
upperneck 9.122385 0.024652 -2.252682 
head 4.991106 -0.095464 -0.918498 
rclavicle 0.000000 0.000000 
rhumerus -26.129708 -15.153497 -81.560719 
rradius 29.630748 
rwrist -1.312564 
rhand -11.996578 -12.065258 
rfingers 0.000000 
rthumb 14.060269 -41.569653 
lclavicle 0.000000 0.000000 
lhumerus -38.474437 2.804238 86.425207 
lradius 37.708128 
lwrist -13.698130 
lhand -6.330472 15.223871 
lfingers 0.000000 
lthumb 19.514624 44.264499 
rfemur 4.090561 0.361183 23.519536 
rtibia 28.672508 
rfoot 26.693934 -9.205725 
rtoes -0.884366 
lfemur -54.163604 0.390673 -19.459592 
ltibia 71.985639 
lfoot -22.021821 1.319424 
ltoes 4.590296 
157
root -8.033919 19.944967 -9.477530 5.606314 -2.333893 -3.145696
lowerback 12.736629 3.371165 0.898906 
upperback -0.661867 4.738118 1.465449 
thorax -7.904649 2.294247 0.133728 
lowerneck -13.796403 -0.031105 1.323343 
upperneck 8.963963 -0.030739 -2.171938 
head 4.941003 -0.117289 -0.894217 
rclavicle 0.000000 0.000000 
rhumerus -26.150459 -15.259791 -81.599378 
rradius 29.503865 
rwrist -0.958591 
rhand -11.960973 -11.975930 
rfingers 0.000000 
rthumb 14.094642 -41.477918 
lclavicle 0.000000 0.000000 
lhumerus -38.393584 2.513900 86.568469 
lradius 38.105011 
lwrist -13.420592 
lhand -6.492163 15.232480 
lfingers 0.000000 
lthumb 19.359175 44.288751 
rfemur 2.554407 -0.464444 23.093022 
rtibia 31.996211 
rfoot 26.565942 -9.719705 
rtoes 2.233563 
lfemur -52.928486 -0.003678 -19.779681 
ltibia 70.884390 
lfoot -22.209311 1.518456 
ltoes 4.689597 
